<svg xmlns="http://www.w3.org/2000/svg" xmlns:xlink="http://www.w3.org/1999/xlink" width="500" zoomAndPan="magnify" viewBox="0 0 375 374.999991" height="500" preserveAspectRatio="xMidYMid meet" version="1.0"><defs><g/><clipPath id="c10b6bcef1"><path d="M 81.585938 222.320312 L 114.402344 222.320312 L 114.402344 253 L 81.585938 253 Z M 81.585938 222.320312 " clip-rule="nonzero"/></clipPath><clipPath id="f21ba6293e"><path d="M 121 222.320312 L 153.695312 222.320312 L 153.695312 253 L 121 253 Z M 121 222.320312 " clip-rule="nonzero"/></clipPath><clipPath id="0858083fa4"><path d="M 160.179688 222.320312 L 193 222.320312 L 193 253.070312 L 160.179688 253.070312 Z M 160.179688 222.320312 " clip-rule="nonzero"/></clipPath><clipPath id="80cbba8484"><path d="M 200 222.320312 L 232.695312 222.320312 L 232.695312 253.070312 L 200 253.070312 Z M 200 222.320312 " clip-rule="nonzero"/></clipPath><clipPath id="6254d2082c"><path d="M 239.175781 222.320312 L 271.992188 222.320312 L 271.992188 253.070312 L 239.175781 253.070312 Z M 239.175781 222.320312 " clip-rule="nonzero"/></clipPath><clipPath id="80f43d8553"><path d="M 15 81 L 148 81 L 148 308 L 15 308 Z M 15 81 " clip-rule="nonzero"/></clipPath><clipPath id="59a9af2a94"><path d="M -21.210938 109.511719 L 50.527344 78.898438 L 147.964844 307.230469 L 76.222656 337.84375 Z M -21.210938 109.511719 " clip-rule="nonzero"/></clipPath><clipPath id="e80d78d3c2"><path d="M -21.210938 109.511719 L 50.527344 78.898438 L 147.964844 307.230469 L 76.222656 337.84375 Z M -21.210938 109.511719 " clip-rule="nonzero"/></clipPath><clipPath id="33281f67de"><path d="M 215 71 L 327 71 L 327 312 L 215 312 Z M 215 71 " clip-rule="nonzero"/></clipPath><clipPath id="815fc540d6"><path d="M 276.972656 69.363281 L 353.109375 89.476562 L 289.507812 330.21875 L 213.371094 310.105469 Z M 276.972656 69.363281 " clip-rule="nonzero"/></clipPath><clipPath id="02bb12042a"><path d="M 276.972656 69.363281 L 353.109375 89.476562 L 289.507812 330.21875 L 213.371094 310.105469 Z M 276.972656 69.363281 " clip-rule="nonzero"/></clipPath><clipPath id="85a7360015"><rect x="0" width="148" y="0" height="96"/></clipPath><clipPath id="490406aa07"><rect x="0" width="86" y="0" height="46"/></clipPath></defs><rect x="-37.5" width="450" fill="#ffffff" y="-37.499999" height="449.999989" fill-opacity="1"/><rect x="-37.5" width="450" fill="#ffffff" y="-37.499999" height="449.999989" fill-opacity="1"/><g clip-path="url(#c10b6bcef1)"><path fill="#ffcf06" d="M 97.800781 222.316406 L 101.628906 234.019531 L 114.011719 234.019531 L 103.992188 241.253906 L 107.820312 252.957031 L 97.800781 245.726562 L 87.777344 252.957031 L 91.605469 241.253906 L 81.585938 234.019531 L 93.972656 234.019531 L 97.800781 222.316406 " fill-opacity="1" fill-rule="nonzero"/></g><g clip-path="url(#f21ba6293e)"><path fill="#ffcf06" d="M 137.292969 222.347656 L 141.121094 234.050781 L 153.507812 234.050781 L 143.488281 241.285156 L 147.3125 252.984375 L 137.292969 245.753906 L 127.273438 252.984375 L 131.101562 241.285156 L 121.082031 234.050781 L 133.46875 234.050781 L 137.292969 222.347656 " fill-opacity="1" fill-rule="nonzero"/></g><g clip-path="url(#0858083fa4)"><path fill="#ffcf06" d="M 176.789062 222.375 L 180.613281 234.078125 L 193 234.078125 L 182.980469 241.3125 L 186.808594 253.015625 L 176.789062 245.78125 L 166.769531 253.015625 L 170.597656 241.3125 L 160.578125 234.078125 L 172.960938 234.078125 L 176.789062 222.375 " fill-opacity="1" fill-rule="nonzero"/></g><g clip-path="url(#80cbba8484)"><path fill="#ffcf06" d="M 216.28125 222.40625 L 220.109375 234.109375 L 232.496094 234.109375 L 222.476562 241.339844 L 226.304688 253.042969 L 216.28125 245.8125 L 206.265625 253.042969 L 210.089844 241.339844 L 200.070312 234.109375 L 212.457031 234.109375 L 216.28125 222.40625 " fill-opacity="1" fill-rule="nonzero"/></g><g clip-path="url(#6254d2082c)"><path fill="#ffcf06" d="M 255.777344 222.433594 L 259.605469 234.136719 L 271.992188 234.136719 L 261.96875 241.371094 L 265.796875 253.074219 L 255.777344 245.839844 L 245.757812 253.074219 L 249.585938 241.371094 L 239.566406 234.136719 L 251.949219 234.136719 L 255.777344 222.433594 " fill-opacity="1" fill-rule="nonzero"/></g><g clip-path="url(#80f43d8553)"><g clip-path="url(#59a9af2a94)"><g clip-path="url(#e80d78d3c2)"><path fill="#ffcf06" d="M 56.054688 245.910156 C 56.214844 246.09375 56.496094 246.136719 56.773438 246.011719 C 57.046875 245.886719 57.230469 245.632812 57.238281 245.375 C 57.363281 242.082031 60.699219 239.429688 61.019531 236.214844 C 61.175781 234.492188 60.332031 233.21875 59.382812 231.933594 C 58.910156 231.289062 58.402344 230.652344 58.007812 229.945312 C 57.644531 229.222656 57.378906 228.449219 57.324219 227.582031 C 57.3125 227.378906 57.167969 227.234375 56.945312 227.195312 C 56.71875 227.160156 56.472656 227.238281 56.277344 227.40625 C 54.078125 229.328125 52.746094 231.328125 52.144531 233.46875 C 51.625 235.5625 51.867188 237.777344 52.683594 240.140625 C 52.925781 240.835938 53.390625 241.871094 53.964844 242.949219 C 54.589844 243.992188 55.339844 245.070312 56.054688 245.910156 Z M 44.667969 125.96875 C 44.792969 125.820312 44.789062 125.621094 44.65625 125.4375 C 44.527344 125.25 44.300781 125.128906 44.046875 125.105469 C 38.421875 124.578125 34.640625 127.175781 32.511719 131.71875 C 31.925781 133.058594 31.078125 136.007812 30.855469 138.199219 C 30.828125 138.441406 30.996094 138.667969 31.277344 138.769531 C 31.558594 138.875 31.867188 138.824219 32.0625 138.644531 C 34.511719 136.394531 38.878906 136.867188 41.246094 134.769531 C 43.707031 132.511719 42.488281 128.671875 44.667969 125.96875 Z M 40.339844 217.632812 C 40.449219 217.851562 40.710938 217.957031 41.003906 217.898438 C 41.296875 217.835938 41.53125 217.628906 41.601562 217.371094 C 42.492188 214.171875 46.449219 212.265625 47.351562 209.234375 C 48.242188 206.027344 45.195312 203.421875 45.605469 199.992188 C 45.632812 199.789062 45.523438 199.625 45.308594 199.539062 C 45.09375 199.453125 44.835938 199.472656 44.609375 199.59375 C 39.554688 202.277344 37.703125 206.292969 38.324219 211.257812 C 38.535156 212.703125 39.375 215.65625 40.339844 217.632812 Z M 66.132812 258.589844 C 66.3125 258.753906 66.601562 258.761719 66.855469 258.605469 C 67.121094 258.449219 67.269531 258.179688 67.246094 257.925781 C 66.933594 254.707031 70.136719 251.539062 70.015625 248.371094 C 69.964844 246.65625 68.972656 245.503906 67.867188 244.34375 C 66.808594 243.160156 65.714844 241.910156 65.382812 240.222656 C 65.34375 240.019531 65.183594 239.898438 64.953125 239.890625 C 64.722656 239.878906 64.488281 239.984375 64.3125 240.175781 C 60.425781 244.449219 59.863281 248.800781 62.160156 253.210938 C 62.84375 254.496094 64.445312 257.148438 66.132812 258.589844 Z M 90.226562 280.171875 C 90.4375 280.296875 90.714844 280.25 90.929688 280.042969 C 91.148438 279.835938 91.238281 279.53125 91.164062 279.28125 C 90.222656 276.101562 92.582031 272.394531 91.742188 269.355469 C 91.273438 267.746094 90.082031 266.808594 88.804688 265.855469 C 87.519531 264.921875 86.125 264.011719 85.40625 262.464844 C 85.320312 262.28125 85.132812 262.203125 84.902344 262.25 C 84.671875 262.292969 84.460938 262.453125 84.335938 262.679688 C 81.527344 267.765625 82.054688 271.886719 85.136719 275.835938 C 86.082031 276.949219 88.359375 279.011719 90.226562 280.171875 Z M 34.921875 202.363281 C 35.015625 202.589844 35.273438 202.71875 35.574219 202.691406 C 35.875 202.660156 36.128906 202.480469 36.21875 202.242188 C 37.296875 199.199219 41.585938 197.699219 42.816406 194.789062 C 43.503906 193.210938 43.09375 191.742188 42.585938 190.21875 C 42.148438 188.683594 41.683594 187.082031 42.121094 185.410156 C 42.171875 185.214844 42.085938 185.035156 41.886719 184.929688 C 41.683594 184.820312 41.425781 184.808594 41.1875 184.902344 C 38.5 185.953125 36.601562 187.414062 35.359375 189.257812 C 34.0625 191.113281 33.578125 193.3125 33.640625 195.800781 C 33.707031 197.257812 34.042969 200.332031 34.921875 202.363281 Z M 103.933594 288.800781 C 104.15625 288.90625 104.425781 288.824219 104.621094 288.59375 C 104.816406 288.363281 104.871094 288.054688 104.765625 287.8125 C 103.46875 284.777344 105.402344 280.835938 104.21875 277.929688 C 103.039062 274.726562 98.964844 274.707031 97.167969 271.773438 C 97.066406 271.589844 96.878906 271.523438 96.660156 271.589844 C 96.4375 271.65625 96.246094 271.835938 96.148438 272.078125 C 93.847656 277.601562 94.925781 281.433594 98.386719 285.078125 C 99.410156 286.140625 101.949219 287.855469 103.933594 288.800781 Z M 77.550781 270.078125 C 77.75 270.21875 78.039062 270.195312 78.28125 270.011719 C 78.523438 269.824219 78.644531 269.542969 78.589844 269.292969 C 78.003906 266.035156 80.777344 262.59375 80.296875 259.460938 C 79.75 256.175781 75.851562 255.183594 74.777344 251.898438 C 74.710938 251.703125 74.539062 251.601562 74.304688 251.621094 C 74.074219 251.636719 73.847656 251.773438 73.699219 251.984375 C 72.003906 254.355469 71.171875 256.574219 71.085938 258.757812 C 71.015625 260.925781 71.613281 263.125 73.019531 265.160156 C 73.824219 266.378906 75.832031 268.707031 77.550781 270.078125 Z M 48.128906 232.382812 C 48.414062 232.289062 48.625 232.058594 48.664062 231.800781 C 49.15625 228.539062 52.882812 226.214844 53.402344 223.128906 C 54.117188 219.761719 50.636719 217.578125 50.664062 214.125 C 50.675781 213.917969 50.558594 213.761719 50.339844 213.699219 C 50.121094 213.632812 49.871094 213.683594 49.65625 213.832031 C 44.792969 217.144531 43.664062 221.175781 44.6875 226.105469 C 44.96875 227.5625 46.246094 230.347656 47.433594 232.199219 C 47.566406 232.40625 47.84375 232.476562 48.128906 232.382812 Z M 42.566406 101.074219 C 41.714844 102.257812 40.066406 104.875 39.527344 107.027344 C 39.457031 107.265625 39.578125 107.527344 39.832031 107.6875 C 40.085938 107.851562 40.398438 107.867188 40.621094 107.734375 C 43.371094 106.019531 47.597656 107.46875 50.398438 105.953125 C 51.925781 105.136719 52.519531 103.722656 53.066406 102.203125 C 53.660156 100.710938 54.304688 99.164062 55.695312 98.121094 C 55.859375 98 55.902344 97.8125 55.820312 97.605469 C 55.734375 97.394531 55.546875 97.226562 55.304688 97.148438 C 49.980469 95.351562 45.511719 97.039062 42.566406 101.074219 Z M 35.328125 105.625 C 35.398438 105.882812 35.636719 106.085938 35.933594 106.140625 C 36.226562 106.195312 36.492188 106.082031 36.601562 105.855469 C 37.5 103.800781 38.628906 100.90625 38.902344 99.410156 C 39.828125 94.351562 39.132812 89.789062 34.667969 86.105469 C 34.46875 85.941406 34.222656 85.890625 33.992188 85.960938 C 33.761719 86.027344 33.613281 86.203125 33.59375 86.433594 C 33.414062 88.4375 32.304688 90.050781 31.375 91.703125 C 30.484375 93.363281 29.691406 95.019531 30 96.902344 C 30.582031 100.351562 34.421875 102.332031 35.328125 105.625 Z M 44.035156 94.535156 C 46.8125 94.085938 49.226562 92.398438 50.71875 89.828125 C 52.371094 87.101562 52.394531 83.832031 51.125 81.082031 C 48.191406 81.09375 45.226562 82.761719 43.472656 85.671875 C 41.890625 88.398438 41.941406 91.609375 43.125 94.070312 C 43.285156 94.402344 43.671875 94.597656 44.035156 94.535156 Z M 30.449219 154.621094 C 32.605469 152.113281 36.996094 152.097656 39.089844 149.75 C 41.375 147.25 39.664062 143.5625 41.5 140.636719 C 41.613281 140.472656 41.605469 140.277344 41.457031 140.109375 C 41.3125 139.941406 41.074219 139.84375 40.820312 139.851562 C 35.050781 139.960938 31.8125 142.953125 30.058594 147.6875 C 29.636719 149.082031 29.152344 152.113281 29.195312 154.316406 C 29.199219 154.558594 29.394531 154.761719 29.683594 154.835938 C 29.976562 154.90625 30.277344 154.820312 30.449219 154.621094 Z M 30.667969 179.929688 C 30.59375 180.664062 30.574219 181.796875 30.628906 183.015625 C 30.730469 184.234375 30.964844 185.523438 31.246094 186.589844 C 31.3125 186.824219 31.550781 186.980469 31.851562 186.984375 C 32.15625 186.988281 32.425781 186.839844 32.542969 186.609375 C 34.058594 183.691406 38.226562 182.722656 39.882812 179.953125 C 41.695312 176.992188 38.851562 173.824219 40.253906 170.542969 C 40.332031 170.355469 40.269531 170.171875 40.082031 170.039062 C 39.902344 169.90625 39.644531 169.867188 39.398438 169.933594 C 36.605469 170.660156 34.542969 171.902344 33.074219 173.605469 C 31.65625 175.300781 30.949219 177.441406 30.667969 179.929688 Z M 29.46875 163.828125 C 29.058594 165.265625 29.039062 168.324219 29.324219 170.507812 C 29.359375 170.753906 29.578125 170.933594 29.875 170.972656 C 30.175781 171.011719 30.464844 170.890625 30.609375 170.675781 C 32.453125 167.945312 36.789062 167.441406 38.609375 164.878906 C 40.765625 162.136719 38.382812 158.667969 40.046875 155.5625 C 40.144531 155.382812 40.105469 155.191406 39.941406 155.039062 C 39.773438 154.890625 39.53125 154.824219 39.273438 154.855469 C 33.488281 155.632812 30.601562 158.929688 29.46875 163.828125 Z M 34.3125 122.367188 C 34.273438 122.609375 34.425781 122.855469 34.695312 122.992188 C 34.96875 123.125 35.277344 123.109375 35.480469 122.949219 C 38.078125 120.960938 42.449219 121.9375 45.03125 120.113281 C 46.46875 119.136719 46.8125 117.632812 47.277344 116.097656 C 47.738281 114.5625 48.152344 112.933594 49.417969 111.738281 C 49.566406 111.605469 49.585938 111.410156 49.476562 111.210938 C 49.367188 111.015625 49.160156 110.867188 48.910156 110.816406 C 46.128906 110.230469 43.746094 110.476562 41.699219 111.414062 C 39.652344 112.347656 37.914062 113.953125 36.699219 116.121094 C 35.972656 117.386719 34.722656 120.203125 34.3125 122.367188 Z M 145.789062 304.074219 L 140.085938 302.796875 C 138.179688 302.386719 136.332031 301.75 134.453125 301.242188 C 130.679688 300.261719 127.042969 298.851562 123.359375 297.570312 C 122.410156 297.257812 121.355469 297.695312 120.984375 298.636719 C 120.609375 299.582031 121.074219 300.699219 122.050781 301.023438 C 125.824219 302.335938 129.550781 303.777344 133.421875 304.785156 C 135.347656 305.308594 137.246094 305.957031 139.199219 306.378906 L 145.042969 307.6875 C 146.046875 307.914062 147.023438 307.28125 147.21875 306.285156 C 147.40625 305.285156 146.765625 304.292969 145.789062 304.074219 Z M 75.492188 273.152344 C 75.644531 272.890625 75.625 272.605469 75.449219 272.429688 C 73.945312 270.753906 71.496094 268.816406 70.195312 268.039062 C 67.953125 266.757812 65.914062 265.859375 63.652344 265.726562 C 61.40625 265.582031 59.019531 266.121094 56.378906 267.476562 C 56.144531 267.597656 55.992188 267.8125 55.96875 268.054688 C 55.949219 268.300781 56.0625 268.507812 56.277344 268.613281 C 59.828125 270.328125 60.976562 274.894531 64.800781 275.53125 C 68.269531 276.140625 71.472656 273.179688 74.796875 273.542969 C 75.066406 273.5625 75.339844 273.410156 75.492188 273.152344 Z M 87.867188 283.929688 C 88.132812 283.925781 88.382812 283.746094 88.507812 283.46875 C 88.632812 283.191406 88.585938 282.90625 88.398438 282.738281 C 86.707031 281.25 84.039062 279.628906 82.648438 279.011719 C 78.089844 276.761719 73.871094 276.710938 68.863281 279.996094 C 68.644531 280.144531 68.515625 280.371094 68.523438 280.621094 C 68.527344 280.863281 68.667969 281.054688 68.890625 281.132812 C 70.773438 281.785156 72.117188 283.175781 73.476562 284.472656 C 74.824219 285.777344 76.207031 286.960938 78.132812 287.042969 C 81.660156 287.25 84.53125 283.925781 87.867188 283.929688 Z M 63.738281 261.414062 C 63.917969 261.171875 63.933594 260.886719 63.777344 260.691406 C 62.335938 258.972656 60.257812 256.660156 59.03125 255.753906 C 54.921875 252.671875 50.917969 251.507812 45.359375 253.648438 C 45.113281 253.742188 44.941406 253.941406 44.890625 254.183594 C 44.839844 254.421875 44.929688 254.640625 45.125 254.769531 C 46.808594 255.835938 47.742188 257.542969 48.796875 259.097656 C 49.890625 260.621094 51.015625 262.054688 52.824219 262.609375 C 56.191406 263.613281 59.644531 261.078125 63.003906 261.726562 C 63.269531 261.777344 63.558594 261.65625 63.738281 261.414062 Z M 52.597656 248.679688 C 52.851562 248.761719 53.152344 248.671875 53.355469 248.453125 C 53.5625 248.234375 53.609375 247.949219 53.484375 247.734375 C 52.90625 246.769531 52.09375 245.703125 51.304688 244.738281 C 50.566406 243.738281 49.824219 242.851562 49.292969 242.316406 C 47.488281 240.511719 45.542969 239.253906 43.328125 238.632812 C 41.195312 237.964844 38.765625 237.945312 35.933594 238.699219 C 35.679688 238.765625 35.488281 238.941406 35.410156 239.179688 C 35.332031 239.414062 35.394531 239.640625 35.570312 239.789062 C 36.332031 240.425781 36.902344 241.1875 37.378906 242.007812 C 37.894531 242.804688 38.34375 243.644531 38.789062 244.472656 C 39.683594 246.121094 40.625 247.683594 42.34375 248.449219 C 45.5 249.871094 49.414062 247.601562 52.597656 248.679688 Z M 119.226562 294.804688 C 117.597656 291.933594 119.058594 287.863281 117.585938 285.050781 C 116.816406 283.5 115.441406 282.855469 113.964844 282.253906 C 112.492188 281.65625 110.902344 281.132812 109.914062 279.691406 C 109.789062 279.523438 109.59375 279.476562 109.382812 279.570312 C 109.167969 279.660156 109.003906 279.863281 108.929688 280.113281 C 108.136719 282.949219 108.027344 285.40625 108.675781 287.433594 C 109.320312 289.464844 110.652344 291.191406 112.585938 292.773438 C 113.699219 293.769531 116.410156 295.195312 118.503906 295.878906 C 118.738281 295.957031 118.996094 295.84375 119.164062 295.589844 C 119.332031 295.339844 119.355469 295.03125 119.226562 294.804688 Z M 110.859375 296.417969 C 108.382812 295.820312 106.128906 295.777344 103.957031 296.414062 C 101.789062 297.058594 99.765625 298.257812 97.667969 300.394531 C 97.480469 300.582031 97.40625 300.835938 97.460938 301.082031 C 97.515625 301.324219 97.6875 301.492188 97.921875 301.523438 C 99.84375 301.851562 101.484375 302.851562 103.105469 303.789062 C 104.726562 304.71875 106.339844 305.550781 108.191406 305.300781 C 111.660156 304.757812 113.761719 300.820312 117.027344 300.058594 C 117.289062 300 117.496094 299.765625 117.554688 299.46875 C 117.609375 299.171875 117.503906 298.90625 117.285156 298.789062 C 115.292969 297.746094 112.292969 296.835938 110.859375 296.417969 Z M 30.644531 121.882812 C 30.945312 121.902344 31.191406 121.761719 31.273438 121.527344 C 32.046875 119.417969 32.757812 116.382812 32.867188 114.867188 C 33.035156 112.289062 32.878906 109.9375 32.015625 107.789062 C 31.144531 105.640625 29.59375 103.707031 27.195312 102.121094 C 26.976562 101.980469 26.730469 101.949219 26.503906 102.046875 C 26.285156 102.140625 26.160156 102.332031 26.164062 102.5625 C 26.207031 104.574219 25.335938 106.320312 24.550781 108.046875 C 23.773438 109.769531 23.25 111.53125 23.753906 113.359375 C 24.753906 116.734375 28.78125 118.28125 29.988281 121.433594 C 30.085938 121.6875 30.347656 121.863281 30.644531 121.882812 Z M 102.003906 292.796875 C 102.269531 292.765625 102.5 292.554688 102.59375 292.265625 C 102.683594 291.980469 102.605469 291.699219 102.402344 291.554688 C 100.554688 290.269531 97.679688 289.027344 96.265625 288.511719 C 91.523438 286.714844 87.253906 287.3125 82.703125 290.996094 C 82.5 291.160156 82.402344 291.40625 82.425781 291.65625 C 82.453125 291.910156 82.605469 292.09375 82.832031 292.152344 C 86.675781 293.03125 88.863281 297.121094 92.648438 297.019531 C 96.1875 296.808594 98.675781 293.1875 102.003906 292.796875 Z M 24.925781 171.042969 C 25.09375 171.25 25.398438 171.332031 25.6875 171.25 C 25.980469 171.171875 26.175781 170.957031 26.179688 170.707031 C 26.257812 168.457031 25.691406 165.367188 25.441406 163.898438 C 24.316406 158.929688 21.441406 155.277344 15.957031 153.726562 C 15.707031 153.660156 15.457031 153.714844 15.269531 153.875 C 15.085938 154.035156 15.015625 154.257812 15.089844 154.476562 C 16.386719 158.210938 14.234375 162.296875 16.292969 165.453125 C 18.367188 168.320312 22.789062 168.453125 24.925781 171.042969 Z M 24.757812 154.355469 C 24.902344 154.574219 25.191406 154.691406 25.492188 154.644531 C 25.789062 154.601562 26.007812 154.40625 26.042969 154.160156 C 26.375 151.933594 26.277344 148.8125 26.046875 147.308594 C 25.5625 142.253906 23.082031 138.257812 17.753906 136.136719 C 17.515625 136.042969 17.257812 136.066406 17.058594 136.210938 C 16.855469 136.347656 16.761719 136.558594 16.8125 136.785156 C 17.863281 140.664062 14.988281 144.453125 16.847656 147.835938 C 18.59375 150.917969 22.945312 151.542969 24.757812 154.355469 Z M 27.128906 138.113281 C 27.433594 138.101562 27.675781 137.9375 27.738281 137.695312 C 28.332031 135.523438 28.617188 132.414062 28.566406 130.894531 C 28.507812 125.792969 26.683594 121.550781 21.519531 118.863281 C 21.289062 118.742188 21.039062 118.742188 20.828125 118.859375 C 20.621094 118.980469 20.519531 119.183594 20.550781 119.414062 C 21.148438 123.382812 17.785156 126.8125 19.355469 130.40625 C 20.71875 133.652344 24.96875 134.753906 26.4375 137.746094 C 26.554688 137.980469 26.824219 138.128906 27.128906 138.113281 Z M 33.492188 233.21875 C 36.613281 234.90625 40.644531 233.144531 43.6875 234.570312 C 43.929688 234.679688 44.234375 234.625 44.464844 234.429688 C 44.691406 234.234375 44.777344 233.957031 44.675781 233.726562 C 43.789062 231.65625 41.972656 229.101562 41.074219 227.898438 C 37.992188 223.871094 33.902344 221.960938 28.179688 222.828125 C 27.925781 222.871094 27.714844 223.023438 27.609375 223.25 C 27.507812 223.476562 27.539062 223.707031 27.695312 223.878906 C 30.558594 226.636719 30.234375 231.289062 33.492188 233.21875 Z M 26.9375 187.609375 C 27.128906 187.796875 27.441406 187.839844 27.722656 187.730469 C 28 187.621094 28.167969 187.386719 28.140625 187.136719 C 28.035156 186.019531 27.746094 184.710938 27.457031 183.496094 C 27.214844 182.277344 26.925781 181.160156 26.671875 180.449219 C 25.824219 178.039062 24.542969 176.035156 22.832031 174.496094 C 21.175781 172.953125 18.976562 171.882812 16.117188 171.410156 C 15.859375 171.371094 15.617188 171.449219 15.449219 171.632812 C 15.285156 171.8125 15.242188 172.039062 15.34375 172.25 C 16.9375 175.824219 15.351562 180.109375 17.773438 183.015625 C 20.019531 185.652344 24.507812 185.277344 26.9375 187.609375 Z M 26.457031 217.089844 C 29.332031 219.125 33.527344 217.816406 36.351562 219.578125 C 36.574219 219.722656 36.882812 219.703125 37.132812 219.53125 C 37.386719 219.355469 37.5 219.089844 37.429688 218.851562 C 36.785156 216.691406 35.386719 213.902344 34.539062 212.644531 C 31.769531 208.355469 28.167969 205.875 22.257812 206.183594 C 22 206.199219 21.777344 206.332031 21.65625 206.539062 C 21.535156 206.753906 21.554688 206.984375 21.703125 207.167969 C 24.25 210.226562 23.238281 214.882812 26.457031 217.089844 Z M 30.753906 203.859375 C 30.972656 204.019531 31.285156 204.03125 31.550781 203.890625 C 31.816406 203.75 31.949219 203.496094 31.894531 203.253906 C 31.359375 201.078125 30.445312 198.101562 29.726562 196.761719 C 28.554688 194.476562 27.082031 192.636719 25.289062 191.28125 C 23.457031 189.945312 21.140625 189.132812 18.230469 188.96875 C 17.972656 188.957031 17.734375 189.0625 17.59375 189.257812 C 17.445312 189.457031 17.4375 189.6875 17.558594 189.886719 C 18.632812 191.574219 18.769531 193.519531 19.039062 195.386719 C 19.375 197.234375 19.78125 199.015625 21.183594 200.296875 C 23.816406 202.636719 27.984375 201.835938 30.753906 203.859375 Z M 30.753906 203.859375 " fill-opacity="1" fill-rule="nonzero"/></g></g></g><g clip-path="url(#33281f67de)"><g clip-path="url(#815fc540d6)"><g clip-path="url(#02bb12042a)"><path fill="#ffcf06" d="M 314.617188 149.960938 C 314.59375 151.460938 314.507812 154.617188 314.929688 156.835938 C 314.976562 157.085938 315.199219 157.265625 315.5 157.300781 C 315.800781 157.335938 316.085938 157.207031 316.226562 156.976562 C 317.949219 154.078125 322.320312 153.265625 323.9375 150.097656 C 325.496094 146.648438 322.730469 142.925781 323.441406 139.019531 C 323.480469 138.789062 323.382812 138.582031 323.171875 138.449219 C 322.964844 138.320312 322.703125 138.304688 322.46875 138.410156 C 317.261719 140.792969 314.96875 144.859375 314.617188 149.960938 Z M 255.171875 285.914062 C 255.398438 286.113281 255.683594 286.15625 255.886719 286.019531 C 257.714844 284.773438 259.96875 282.679688 260.824219 281.46875 C 263.699219 277.316406 264.179688 273.347656 261.046875 268.21875 C 260.914062 267.996094 260.695312 267.84375 260.464844 267.8125 C 260.234375 267.78125 260.058594 267.878906 259.992188 268.074219 C 258.65625 271.261719 254.613281 271.90625 253.933594 275.269531 C 253.207031 278.335938 255.730469 281.953125 254.910156 285.164062 C 254.84375 285.421875 254.945312 285.71875 255.171875 285.914062 Z M 278.46875 263.421875 C 278.734375 263.570312 279.027344 263.546875 279.199219 263.378906 C 280.695312 261.75 282.332031 259.132812 282.945312 257.796875 C 284.03125 255.5625 284.285156 253.285156 283.878906 251.144531 C 283.457031 248.992188 282.292969 246.917969 280.246094 244.820312 C 280.0625 244.636719 279.820312 244.535156 279.585938 244.554688 C 279.351562 244.570312 279.195312 244.699219 279.164062 244.902344 C 278.601562 248.328125 274.882812 249.914062 274.84375 253.257812 C 274.847656 256.4375 278.132812 259.429688 278.050781 262.753906 C 278.035156 263.011719 278.199219 263.277344 278.46875 263.421875 Z M 302.652344 119.105469 C 299.839844 114.921875 295.6875 112.921875 290.183594 114.3125 C 289.9375 114.375 289.734375 114.53125 289.628906 114.734375 C 289.527344 114.9375 289.554688 115.136719 289.703125 115.265625 C 292.28125 117.613281 291.664062 121.613281 294.453125 123.476562 C 297.121094 125.195312 301.386719 124.050781 304.164062 125.910156 C 304.382812 126.058594 304.699219 126.0625 304.960938 125.914062 C 305.226562 125.769531 305.359375 125.519531 305.296875 125.285156 C 304.738281 123.144531 303.441406 120.34375 302.652344 119.105469 Z M 302.617188 221.4375 C 302.914062 221.484375 303.175781 221.371094 303.277344 221.144531 C 304.171875 219.125 305.015625 216.164062 305.070312 214.675781 C 305.324219 209.625 303.585938 205.792969 298.25 203.253906 C 298.015625 203.140625 297.757812 203.128906 297.550781 203.226562 C 297.347656 203.324219 297.25 203.496094 297.296875 203.703125 C 297.851562 207.125 294.734375 209.824219 295.957031 213.058594 C 296.953125 216.042969 301.003906 217.777344 301.996094 220.9375 C 302.074219 221.1875 302.316406 221.386719 302.617188 221.4375 Z M 287.5625 249.726562 C 287.578125 249.984375 287.773438 250.230469 288.054688 250.34375 C 288.335938 250.457031 288.621094 250.410156 288.773438 250.214844 C 290.226562 248.527344 291.40625 245.648438 291.890625 244.265625 C 293.492188 239.535156 292.265625 235.304688 287.75 231.660156 C 287.546875 231.496094 287.296875 231.425781 287.066406 231.472656 C 286.839844 231.515625 286.703125 231.664062 286.695312 231.867188 C 286.621094 233.59375 285.730469 235.007812 284.859375 236.34375 C 283.945312 237.664062 283.136719 238.960938 283.347656 240.667969 C 283.714844 243.835938 287.382812 246.484375 287.5625 249.726562 Z M 296.128906 236.292969 C 296.425781 236.375 296.695312 236.289062 296.828125 236.082031 C 297.40625 235.136719 297.988281 233.953125 298.449219 232.820312 C 298.851562 231.660156 299.152344 230.5625 299.289062 229.835938 C 299.738281 227.363281 299.632812 225.128906 298.796875 223.132812 C 297.871094 221.097656 296.242188 219.316406 293.765625 217.75 C 293.546875 217.609375 293.285156 217.570312 293.066406 217.640625 C 292.847656 217.714844 292.734375 217.878906 292.75 218.082031 C 292.828125 218.949219 292.683594 219.757812 292.4375 220.535156 C 292.152344 221.292969 291.746094 222.007812 291.378906 222.71875 C 290.628906 224.140625 289.992188 225.535156 290.410156 227.21875 C 291.222656 230.363281 294.941406 232.484375 295.570312 235.730469 C 295.617188 235.988281 295.839844 236.210938 296.128906 236.292969 Z M 267.453125 275.324219 C 267.699219 275.496094 267.980469 275.503906 268.167969 275.34375 C 269.84375 273.902344 271.792969 271.507812 272.554688 270.257812 C 275.007812 265.863281 274.902344 261.691406 271.328125 257.074219 C 271.171875 256.871094 270.9375 256.742188 270.699219 256.734375 C 270.464844 256.722656 270.292969 256.832031 270.234375 257.027344 C 269.753906 258.671875 268.515625 259.789062 267.382812 260.914062 C 266.261719 262.054688 265.222656 263.171875 265.003906 264.839844 C 264.632812 267.984375 267.546875 271.300781 267.101562 274.605469 C 267.066406 274.867188 267.203125 275.152344 267.453125 275.324219 Z M 318.972656 177.125 C 317.40625 178.742188 316.222656 180.796875 315.410156 183.246094 C 314.90625 184.6875 314.457031 187.78125 314.253906 190.023438 C 314.238281 190.273438 314.414062 190.5 314.695312 190.601562 C 314.984375 190.699219 315.292969 190.640625 315.484375 190.449219 C 317.921875 188.015625 322.179688 188.171875 324.4375 185.445312 C 325.632812 183.957031 325.761719 182.125 325.8125 180.238281 C 325.792969 178.34375 325.628906 176.390625 326.433594 174.550781 C 326.527344 174.335938 326.480469 174.105469 326.304688 173.933594 C 326.132812 173.757812 325.882812 173.691406 325.628906 173.742188 C 322.761719 174.351562 320.589844 175.515625 318.972656 177.125 Z M 313.074219 199.75 C 312.429688 201.132812 311.46875 204.117188 311.160156 206.359375 C 311.125 206.609375 311.28125 206.855469 311.558594 206.984375 C 311.832031 207.117188 312.144531 207.089844 312.34375 206.914062 C 314.878906 204.730469 319.238281 205.386719 321.78125 202.925781 C 324.636719 200.238281 322.917969 195.769531 324.976562 192.34375 C 325.097656 192.136719 325.078125 191.90625 324.925781 191.710938 C 324.777344 191.523438 324.535156 191.425781 324.273438 191.453125 C 318.359375 192.054688 315.167969 195.066406 313.074219 199.75 Z M 315.9375 166.582031 C 315.796875 167.328125 315.675781 168.480469 315.625 169.730469 C 315.527344 170.976562 315.441406 172.320312 315.507812 173.449219 C 315.519531 173.699219 315.71875 173.90625 316.015625 173.972656 C 316.3125 174.039062 316.609375 173.945312 316.773438 173.730469 C 318.824219 171.042969 323.34375 170.722656 325.167969 167.761719 C 327.125 164.507812 324.894531 160.496094 325.925781 156.703125 C 325.988281 156.480469 325.917969 156.257812 325.722656 156.105469 C 325.53125 155.949219 325.273438 155.910156 325.027344 155.988281 C 322.261719 156.894531 320.242188 158.296875 318.832031 160.082031 C 317.371094 161.871094 316.40625 164.0625 315.9375 166.582031 Z M 308.671875 176.664062 C 307.148438 175.019531 305.042969 173.863281 302.214844 173.234375 C 301.960938 173.175781 301.707031 173.226562 301.523438 173.367188 C 301.34375 173.503906 301.28125 173.695312 301.367188 173.882812 C 302.050781 175.476562 301.839844 177.136719 301.640625 178.726562 C 301.371094 180.316406 301.191406 181.839844 302.117188 183.300781 C 303.78125 186 308.273438 186.828125 309.8125 189.683594 C 309.9375 189.90625 310.214844 190.046875 310.519531 190.03125 C 310.820312 190.011719 311.054688 189.84375 311.113281 189.605469 C 311.675781 187.453125 311.539062 184.347656 311.378906 182.894531 C 311.058594 180.414062 310.238281 178.304688 308.671875 176.664062 Z M 310.605469 150.511719 C 308.730469 145.824219 305.359375 142.996094 299.492188 143.113281 C 299.234375 143.117188 299 143.222656 298.863281 143.398438 C 298.722656 143.574219 298.710938 143.769531 298.835938 143.929688 C 300.964844 146.757812 299.132812 150.570312 301.695312 152.957031 C 303.894531 155.222656 308.277344 155.054688 310.523438 157.488281 C 310.707031 157.679688 311.007812 157.753906 311.300781 157.667969 C 311.589844 157.582031 311.777344 157.371094 311.773438 157.121094 C 311.722656 154.910156 311.234375 151.878906 310.605469 150.511719 Z M 307.542969 134.578125 C 305.074219 130.148438 301.402344 127.675781 295.65625 128.457031 C 295.398438 128.488281 295.183594 128.621094 295.0625 128.808594 C 294.945312 128.996094 294.960938 129.191406 295.101562 129.339844 C 297.371094 131.960938 296.238281 135.886719 298.894531 138.015625 C 301.332031 140.027344 305.695312 139.367188 308.21875 141.523438 C 308.417969 141.695312 308.734375 141.734375 309.011719 141.617188 C 309.289062 141.5 309.449219 141.269531 309.417969 141.027344 C 309.121094 138.832031 308.171875 135.902344 307.542969 134.578125 Z M 311.886719 166.683594 C 311.230469 164.253906 310.195312 162.238281 308.527344 160.773438 C 306.808594 159.308594 304.570312 158.394531 301.6875 158.097656 C 301.433594 158.070312 301.183594 158.148438 301.023438 158.308594 C 300.863281 158.46875 300.824219 158.660156 300.929688 158.835938 C 302.828125 161.875 300.492188 165.460938 302.746094 168.117188 C 304.816406 170.613281 309.105469 170.9375 311.054688 173.601562 C 311.207031 173.8125 311.5 173.917969 311.800781 173.867188 C 312.097656 173.816406 312.3125 173.625 312.339844 173.378906 C 312.457031 172.28125 312.488281 170.960938 312.40625 169.738281 C 312.273438 168.519531 312.078125 167.398438 311.886719 166.683594 Z M 308.085938 205.597656 C 308.738281 203.488281 309.121094 200.421875 309.105469 198.957031 C 308.953125 193.933594 306.5 190.230469 301.074219 188.34375 C 300.832031 188.257812 300.570312 188.277344 300.371094 188.394531 C 300.167969 188.515625 300.089844 188.695312 300.144531 188.890625 C 301.082031 192.234375 298.457031 195.289062 299.832031 198.335938 C 301.191406 201.207031 305.417969 202.488281 306.789062 205.53125 C 306.898438 205.773438 307.167969 205.945312 307.46875 205.960938 C 307.769531 205.976562 308.011719 205.832031 308.085938 205.597656 Z M 277.300781 284.933594 C 272.214844 281.976562 267.886719 282.039062 263.457031 284.550781 C 262.132812 285.28125 259.46875 286.953125 257.832031 288.515625 C 257.648438 288.691406 257.617188 288.980469 257.753906 289.25 C 257.886719 289.523438 258.148438 289.695312 258.417969 289.683594 C 261.78125 289.5625 264.808594 292.777344 268.351562 292.441406 C 272.128906 291.960938 273.667969 287.5625 277.351562 286.101562 C 277.566406 286.007812 277.6875 285.800781 277.675781 285.546875 C 277.667969 285.296875 277.53125 285.066406 277.300781 284.933594 Z M 311.464844 133.585938 C 311.46875 135.113281 311.851562 138.230469 312.523438 140.386719 C 312.597656 140.628906 312.839844 140.785156 313.144531 140.785156 C 313.453125 140.785156 313.71875 140.625 313.828125 140.382812 C 315.199219 137.316406 319.421875 136.027344 320.679688 132.699219 C 322.007812 129.054688 318.570312 125.734375 319.015625 121.722656 C 319.03125 121.492188 318.90625 121.296875 318.683594 121.1875 C 318.464844 121.078125 318.203125 121.09375 317.980469 121.222656 C 313.019531 124.148438 311.167969 128.496094 311.464844 133.585938 Z M 299.820312 257.539062 C 296.992188 256.601562 294.535156 256.429688 292.328125 256.921875 C 290.105469 257.402344 288.21875 258.605469 286.191406 260.21875 C 285.019531 261.195312 282.886719 263.492188 281.652344 265.390625 C 281.503906 265.589844 281.527344 265.875 281.71875 266.109375 C 281.910156 266.34375 282.203125 266.457031 282.46875 266.394531 C 285.710938 265.519531 289.347656 267.96875 292.695312 266.828125 C 296.398438 265.613281 296.832031 260.902344 300.097656 258.652344 C 300.292969 258.515625 300.371094 258.292969 300.3125 258.054688 C 300.253906 257.8125 300.070312 257.621094 299.820312 257.539062 Z M 263.890625 296.5625 C 261.476562 294.765625 259.289062 293.882812 257.035156 293.578125 C 254.78125 293.277344 252.550781 293.667969 250.183594 294.644531 C 248.824219 295.277344 245.988281 296.644531 244.171875 297.984375 C 243.964844 298.132812 243.902344 298.414062 244.007812 298.699219 C 244.113281 298.984375 244.355469 299.183594 244.621094 299.203125 C 247.980469 299.457031 250.671875 303.042969 254.195312 303.050781 C 256.074219 303.011719 257.546875 301.9375 259.011719 300.765625 C 260.476562 299.589844 261.953125 298.34375 263.8125 297.722656 C 264.039062 297.65625 264.183594 297.460938 264.199219 297.210938 C 264.21875 296.960938 264.105469 296.71875 263.890625 296.5625 Z M 250.972656 285.386719 C 251.300781 283.273438 250.816406 280.851562 249.59375 278.160156 C 249.484375 277.921875 249.285156 277.746094 249.0625 277.691406 C 248.835938 277.632812 248.648438 277.707031 248.554688 277.890625 C 247.792969 279.472656 246.292969 280.242188 244.925781 281.0625 C 243.554688 281.882812 242.289062 282.734375 241.761719 284.390625 C 240.734375 287.410156 242.808594 291.226562 241.628906 294.328125 C 241.539062 294.570312 241.605469 294.875 241.8125 295.097656 C 242.015625 295.324219 242.292969 295.394531 242.511719 295.285156 C 244.484375 294.28125 246.957031 292.449219 247.910156 291.292969 C 249.585938 289.421875 250.644531 287.503906 250.972656 285.386719 Z M 321.585938 209.214844 C 321.445312 209.007812 321.210938 208.886719 320.953125 208.882812 C 315.136719 208.902344 311.371094 211.425781 308.933594 215.898438 C 308.226562 217.230469 306.816406 220.046875 306.25 222.238281 C 306.1875 222.480469 306.3125 222.742188 306.570312 222.902344 C 306.828125 223.0625 307.140625 223.070312 307.363281 222.921875 C 310.164062 221.042969 314.433594 222.171875 317.273438 220.015625 C 320.214844 217.601562 319.175781 213.03125 321.59375 209.851562 C 321.722656 209.660156 321.722656 209.425781 321.585938 209.214844 Z M 308.632812 242.121094 C 302.789062 240.847656 298.996094 242.621094 295.386719 246.3125 C 294.308594 247.398438 292.597656 250.015625 291.433594 251.941406 C 291.308594 252.160156 291.367188 252.441406 291.582031 252.652344 C 291.796875 252.863281 292.105469 252.941406 292.359375 252.851562 C 295.59375 251.691406 299.410156 253.675781 302.601562 252.164062 C 304.3125 251.335938 305.207031 249.738281 306.058594 248.058594 C 306.867188 246.351562 307.535156 244.515625 309.039062 243.195312 C 309.214844 243.039062 309.269531 242.808594 309.179688 242.578125 C 309.09375 242.34375 308.890625 242.175781 308.632812 242.121094 Z M 315.695312 225.828125 C 312.769531 225.519531 310.359375 225.910156 308.34375 226.902344 C 306.238281 227.859375 304.5 229.402344 302.988281 231.476562 C 302.542969 232.089844 301.945312 233.082031 301.363281 234.191406 C 300.726562 235.269531 300.085938 236.453125 299.664062 237.496094 C 299.566406 237.730469 299.660156 238.003906 299.898438 238.191406 C 300.132812 238.378906 300.445312 238.421875 300.6875 238.296875 C 303.679688 236.742188 307.917969 238.390625 310.828125 236.492188 C 312.417969 235.472656 313.109375 233.773438 313.746094 232 C 314.0625 231.113281 314.378906 230.207031 314.765625 229.335938 C 315.117188 228.449219 315.5625 227.605469 316.21875 226.859375 C 316.375 226.683594 316.402344 226.449219 316.289062 226.226562 C 316.175781 226.003906 315.953125 225.859375 315.695312 225.828125 Z M 289.351562 271.890625 C 283.875 269.394531 279.691406 270.09375 275.511719 273.027344 C 274.230469 273.855469 271.828125 275.875 270.375 277.609375 C 270.214844 277.804688 270.21875 278.097656 270.382812 278.355469 C 270.546875 278.609375 270.828125 278.75 271.085938 278.710938 C 274.402344 278.199219 277.765625 281.054688 281.234375 280.308594 C 283.128906 279.929688 284.324219 278.542969 285.457031 277.039062 C 286.609375 275.542969 287.726562 273.957031 289.496094 273.019531 C 289.710938 272.90625 289.816406 272.699219 289.785156 272.453125 C 289.75 272.210938 289.589844 272 289.351562 271.890625 Z M 237.949219 297.707031 C 234.496094 299.542969 231.101562 301.503906 227.503906 303.058594 C 225.71875 303.851562 223.980469 304.765625 222.152344 305.464844 L 216.683594 307.609375 C 215.753906 307.976562 215.265625 309.0625 215.609375 310.023438 C 215.949219 310.984375 217.019531 311.460938 217.980469 311.085938 L 223.582031 308.882812 C 225.457031 308.164062 227.238281 307.234375 229.070312 306.417969 C 232.757812 304.820312 236.242188 302.816406 239.78125 300.933594 C 240.703125 300.460938 240.992188 299.28125 240.476562 298.402344 C 239.960938 297.523438 238.847656 297.25 237.949219 297.707031 Z M 302.316406 108.796875 C 302.429688 109.019531 302.699219 109.121094 302.992188 109.054688 C 303.289062 108.988281 303.519531 108.773438 303.582031 108.507812 C 304.292969 105.191406 308.050781 103.039062 308.523438 99.53125 C 308.742188 97.640625 307.953125 95.972656 306.914062 94.378906 C 305.875 92.789062 304.742188 91.191406 304.472656 89.1875 C 304.441406 88.957031 304.285156 88.785156 304.054688 88.726562 C 303.820312 88.667969 303.578125 88.734375 303.382812 88.90625 C 301.242188 90.847656 300 93.007812 299.46875 95.273438 C 298.941406 97.539062 299.148438 99.898438 299.707031 102.433594 C 300.050781 103.917969 301.21875 106.820312 302.316406 108.796875 Z M 308.308594 124.304688 C 308.410156 124.535156 308.675781 124.664062 308.976562 124.625 C 309.28125 124.59375 309.53125 124.40625 309.609375 124.15625 C 310.605469 120.960938 314.65625 119.214844 315.511719 115.777344 C 316.519531 111.972656 312.652344 109.085938 312.636719 105.050781 C 312.632812 104.816406 312.5 104.628906 312.273438 104.542969 C 312.046875 104.460938 311.796875 104.5 311.585938 104.652344 C 306.875 108.113281 305.71875 112.609375 306.445312 117.679688 C 306.625 119.195312 307.386719 122.238281 308.308594 124.304688 Z M 283.160156 100.875 C 282.921875 100.964844 282.738281 101.140625 282.660156 101.355469 C 282.582031 101.570312 282.636719 101.757812 282.800781 101.871094 C 284.238281 102.859375 284.902344 104.414062 285.59375 105.867188 C 286.292969 107.320312 286.867188 108.761719 288.441406 109.507812 C 291.285156 110.921875 295.46875 109.28125 298.359375 110.855469 C 298.585938 110.984375 298.894531 110.953125 299.144531 110.777344 C 299.394531 110.601562 299.503906 110.335938 299.425781 110.097656 C 298.6875 108.015625 297.015625 105.410156 296.097656 104.265625 C 294.558594 102.300781 292.585938 100.972656 290.410156 100.359375 C 288.234375 99.746094 285.835938 99.867188 283.160156 100.875 Z M 290.917969 96.539062 C 291.160156 96.640625 291.464844 96.574219 291.691406 96.375 C 291.917969 96.175781 292 95.898438 291.894531 95.671875 C 291.03125 93.621094 288.992188 91.273438 287.960938 90.230469 C 284.421875 86.675781 279.726562 85.6875 274.710938 88.289062 C 274.484375 88.40625 274.324219 88.601562 274.273438 88.820312 C 274.222656 89.039062 274.296875 89.21875 274.472656 89.3125 C 276.019531 90.136719 276.894531 91.570312 277.710938 92.964844 C 278.492188 94.386719 279.296875 95.703125 280.9375 96.277344 C 283.953125 97.351562 287.925781 95.261719 290.917969 96.539062 Z M 278.140625 80.320312 C 280.015625 82.636719 282.675781 83.941406 285.5 83.964844 C 285.871094 83.96875 286.226562 83.714844 286.332031 83.363281 C 287.128906 80.738281 286.6875 77.542969 284.695312 75.078125 C 282.507812 72.460938 279.308594 71.257812 276.390625 71.695312 C 275.558594 74.621094 276.082031 77.863281 278.140625 80.320312 Z M 294.621094 94.058594 C 294.761719 94.265625 295.039062 94.335938 295.328125 94.238281 C 295.613281 94.140625 295.816406 93.902344 295.847656 93.632812 C 296.238281 90.226562 299.746094 87.671875 299.796875 84.152344 C 299.816406 82.242188 298.769531 80.71875 297.636719 79.203125 C 296.457031 77.710938 295.109375 76.277344 294.621094 74.316406 C 294.5625 74.089844 294.390625 73.941406 294.152344 73.90625 C 293.914062 73.871094 293.675781 73.964844 293.503906 74.15625 C 289.640625 78.5 289.648438 83.132812 291.347656 88.011719 C 291.84375 89.453125 293.414062 92.15625 294.621094 94.058594 Z M 294.621094 94.058594 " fill-opacity="1" fill-rule="nonzero"/></g></g></g><g transform="matrix(1, 0, 0, 1, 103, 81)"><g clip-path="url(#85a7360015)"><g fill="#5170ff" fill-opacity="1"><g transform="translate(1.082319, 74.694471)"><g><path d="M 28.8125 0 L 18.28125 0 L 18.28125 -28.8125 L 18.390625 -33.546875 L 18.5625 -38.71875 C 16.8125 -36.96875 15.59375 -35.820312 14.90625 -35.28125 L 9.1875 -30.671875 L 4.125 -37.015625 L 20.15625 -49.78125 L 28.8125 -49.78125 Z M 28.8125 0 "/></g></g></g><g fill="#5170ff" fill-opacity="1"><g transform="translate(40.880438, 74.694471)"><g><path d="M 27.34375 0 L 15.359375 -39.0625 L 15.046875 -39.0625 C 15.484375 -31.113281 15.703125 -25.8125 15.703125 -23.15625 L 15.703125 0 L 6.265625 0 L 6.265625 -49.78125 L 20.640625 -49.78125 L 32.421875 -11.71875 L 32.625 -11.71875 L 45.109375 -49.78125 L 59.484375 -49.78125 L 59.484375 0 L 49.640625 0 L 49.640625 -23.5625 C 49.640625 -24.675781 49.65625 -25.957031 49.6875 -27.40625 C 49.726562 -28.863281 49.882812 -32.722656 50.15625 -38.984375 L 49.84375 -38.984375 L 37.015625 0 Z M 27.34375 0 "/></g></g></g><g fill="#5170ff" fill-opacity="1"><g transform="translate(106.62053, 74.694471)"><g><path d="M 16.171875 -20.84375 L 3 -20.84375 L 3 -28.296875 L 16.171875 -28.296875 L 16.171875 -41.578125 L 23.625 -41.578125 L 23.625 -28.296875 L 36.8125 -28.296875 L 36.8125 -20.84375 L 23.625 -20.84375 L 23.625 -7.734375 L 16.171875 -7.734375 Z M 16.171875 -20.84375 "/></g></g></g></g></g><g transform="matrix(1, 0, 0, 1, 134, 167)"><g clip-path="url(#490406aa07)"><g fill="#000000" fill-opacity="1"><g transform="translate(0.546144, 35.012418)"><g><path d="M 5.390625 -17.796875 L 5.390625 -6.25 C 5.390625 -4.800781 5.71875 -3.71875 6.375 -3 C 7.039062 -2.289062 8.078125 -1.9375 9.484375 -1.9375 C 11.347656 -1.9375 12.707031 -2.441406 13.5625 -3.453125 C 14.425781 -4.472656 14.859375 -6.140625 14.859375 -8.453125 L 14.859375 -17.796875 L 17.5625 -17.796875 L 17.5625 0 L 15.328125 0 L 14.9375 -2.390625 L 14.796875 -2.390625 C 14.242188 -1.515625 13.476562 -0.84375 12.5 -0.375 C 11.519531 0.09375 10.398438 0.328125 9.140625 0.328125 C 6.972656 0.328125 5.347656 -0.1875 4.265625 -1.21875 C 3.191406 -2.25 2.65625 -3.894531 2.65625 -6.15625 L 2.65625 -17.796875 Z M 5.390625 -17.796875 "/></g></g></g><g fill="#000000" fill-opacity="1"><g transform="translate(20.958442, 35.012418)"><g><path d="M 14.34375 -4.859375 C 14.34375 -3.203125 13.722656 -1.921875 12.484375 -1.015625 C 11.253906 -0.117188 9.523438 0.328125 7.296875 0.328125 C 4.929688 0.328125 3.085938 -0.046875 1.765625 -0.796875 L 1.765625 -3.296875 C 2.617188 -2.859375 3.535156 -2.515625 4.515625 -2.265625 C 5.503906 -2.023438 6.453125 -1.90625 7.359375 -1.90625 C 8.765625 -1.90625 9.847656 -2.128906 10.609375 -2.578125 C 11.367188 -3.023438 11.75 -3.707031 11.75 -4.625 C 11.75 -5.320312 11.445312 -5.914062 10.84375 -6.40625 C 10.238281 -6.894531 9.066406 -7.476562 7.328125 -8.15625 C 5.671875 -8.769531 4.492188 -9.304688 3.796875 -9.765625 C 3.097656 -10.222656 2.578125 -10.742188 2.234375 -11.328125 C 1.890625 -11.921875 1.71875 -12.625 1.71875 -13.4375 C 1.71875 -14.882812 2.304688 -16.023438 3.484375 -16.859375 C 4.671875 -17.703125 6.289062 -18.125 8.34375 -18.125 C 10.257812 -18.125 12.132812 -17.734375 13.96875 -16.953125 L 13.015625 -14.765625 C 11.222656 -15.503906 9.601562 -15.875 8.15625 -15.875 C 6.875 -15.875 5.90625 -15.671875 5.25 -15.265625 C 4.601562 -14.867188 4.28125 -14.316406 4.28125 -13.609375 C 4.28125 -13.128906 4.398438 -12.722656 4.640625 -12.390625 C 4.890625 -12.054688 5.285156 -11.738281 5.828125 -11.4375 C 6.367188 -11.132812 7.410156 -10.695312 8.953125 -10.125 C 11.066406 -9.351562 12.492188 -8.578125 13.234375 -7.796875 C 13.972656 -7.015625 14.34375 -6.035156 14.34375 -4.859375 Z M 14.34375 -4.859375 "/></g></g></g><g fill="#000000" fill-opacity="1"><g transform="translate(36.823848, 35.012418)"><g><path d="M 10.375 0.328125 C 7.75 0.328125 5.675781 -0.472656 4.15625 -2.078125 C 2.632812 -3.679688 1.875 -5.90625 1.875 -8.75 C 1.875 -11.625 2.578125 -13.90625 3.984375 -15.59375 C 5.398438 -17.28125 7.300781 -18.125 9.6875 -18.125 C 11.914062 -18.125 13.675781 -17.390625 14.96875 -15.921875 C 16.269531 -14.453125 16.921875 -12.519531 16.921875 -10.125 L 16.921875 -8.40625 L 4.65625 -8.40625 C 4.71875 -6.320312 5.25 -4.738281 6.25 -3.65625 C 7.25 -2.570312 8.660156 -2.03125 10.484375 -2.03125 C 12.398438 -2.03125 14.289062 -2.429688 16.15625 -3.234375 L 16.15625 -0.828125 C 15.207031 -0.421875 14.304688 -0.128906 13.453125 0.046875 C 12.609375 0.234375 11.582031 0.328125 10.375 0.328125 Z M 9.640625 -15.875 C 8.210938 -15.875 7.070312 -15.40625 6.21875 -14.46875 C 5.375 -13.539062 4.878906 -12.253906 4.734375 -10.609375 L 14.03125 -10.609375 C 14.03125 -12.304688 13.648438 -13.609375 12.890625 -14.515625 C 12.140625 -15.421875 11.054688 -15.875 9.640625 -15.875 Z M 9.640625 -15.875 "/></g></g></g><g fill="#000000" fill-opacity="1"><g transform="translate(55.482346, 35.012418)"><g><path d="M 10.984375 -18.125 C 11.773438 -18.125 12.484375 -18.0625 13.109375 -17.9375 L 12.734375 -15.4375 C 11.992188 -15.59375 11.34375 -15.671875 10.78125 -15.671875 C 9.34375 -15.671875 8.113281 -15.085938 7.09375 -13.921875 C 6.070312 -12.753906 5.5625 -11.296875 5.5625 -9.546875 L 5.5625 0 L 2.859375 0 L 2.859375 -17.796875 L 5.078125 -17.796875 L 5.390625 -14.5 L 5.515625 -14.5 C 6.179688 -15.664062 6.976562 -16.5625 7.90625 -17.1875 C 8.84375 -17.8125 9.867188 -18.125 10.984375 -18.125 Z M 10.984375 -18.125 "/></g></g></g><g fill="#000000" fill-opacity="1"><g transform="translate(69.058067, 35.012418)"><g><path d="M 14.34375 -4.859375 C 14.34375 -3.203125 13.722656 -1.921875 12.484375 -1.015625 C 11.253906 -0.117188 9.523438 0.328125 7.296875 0.328125 C 4.929688 0.328125 3.085938 -0.046875 1.765625 -0.796875 L 1.765625 -3.296875 C 2.617188 -2.859375 3.535156 -2.515625 4.515625 -2.265625 C 5.503906 -2.023438 6.453125 -1.90625 7.359375 -1.90625 C 8.765625 -1.90625 9.847656 -2.128906 10.609375 -2.578125 C 11.367188 -3.023438 11.75 -3.707031 11.75 -4.625 C 11.75 -5.320312 11.445312 -5.914062 10.84375 -6.40625 C 10.238281 -6.894531 9.066406 -7.476562 7.328125 -8.15625 C 5.671875 -8.769531 4.492188 -9.304688 3.796875 -9.765625 C 3.097656 -10.222656 2.578125 -10.742188 2.234375 -11.328125 C 1.890625 -11.921875 1.71875 -12.625 1.71875 -13.4375 C 1.71875 -14.882812 2.304688 -16.023438 3.484375 -16.859375 C 4.671875 -17.703125 6.289062 -18.125 8.34375 -18.125 C 10.257812 -18.125 12.132812 -17.734375 13.96875 -16.953125 L 13.015625 -14.765625 C 11.222656 -15.503906 9.601562 -15.875 8.15625 -15.875 C 6.875 -15.875 5.90625 -15.671875 5.25 -15.265625 C 4.601562 -14.867188 4.28125 -14.316406 4.28125 -13.609375 C 4.28125 -13.128906 4.398438 -12.722656 4.640625 -12.390625 C 4.890625 -12.054688 5.285156 -11.738281 5.828125 -11.4375 C 6.367188 -11.132812 7.410156 -10.695312 8.953125 -10.125 C 11.066406 -9.351562 12.492188 -8.578125 13.234375 -7.796875 C 13.972656 -7.015625 14.34375 -6.035156 14.34375 -4.859375 Z M 14.34375 -4.859375 "/></g></g></g></g></g></svg>